<svg width="25" height="24" viewBox="0 0 25 24" fill="none" xmlns="http://www.w3.org/2000/svg">
<path d="M21.5 16.09V11.098C21.5 6.808 21.5 4.665 20.182 3.332C18.864 2 16.742 2 12.5 2C8.257 2 6.136 2 4.818 3.332C3.5 4.665 3.5 6.81 3.5 11.098V16.091C3.5 19.187 3.5 20.736 4.234 21.412C4.584 21.735 5.026 21.938 5.497 21.992C6.484 22.105 7.637 21.085 9.942 19.046C10.962 18.145 11.471 17.694 12.06 17.576C12.35 17.516 12.65 17.516 12.94 17.576C13.53 17.694 14.039 18.145 15.058 19.046C17.363 21.085 18.516 22.105 19.503 21.991C19.973 21.938 20.416 21.735 20.766 21.412C21.5 20.736 21.5 19.187 21.5 16.09Z" stroke="#0C0C0C" stroke-width="1.5"/>
<path d="M15.5 6H9.5" stroke="#0C0C0C" stroke-width="1.5" stroke-linecap="round"/>
</svg>
