<svg width="15" height="16" viewBox="0 0 15 16" fill="none" xmlns="http://www.w3.org/2000/svg">
<path d="M14.3997 11.2717V7.27823C14.3997 3.84631 14.3997 2.13195 13.3453 1.06558C12.2909 0 10.5934 0 7.19983 0C3.80551 0 2.10875 0 1.05438 1.06558C-9.53652e-08 2.13195 0 3.84791 0 7.27823V11.2725C0 13.7493 -4.76826e-08 14.9885 0.587186 15.5292C0.86718 15.7876 1.22077 15.95 1.59756 15.9932C2.38714 16.0836 3.30952 15.2676 5.15348 13.6365C5.96946 12.9157 6.37665 12.5549 6.84784 12.4605C7.07984 12.4125 7.31983 12.4125 7.55182 12.4605C8.02381 12.5549 8.431 12.9157 9.24618 13.6365C11.0901 15.2676 12.0125 16.0836 12.8021 15.9924C13.1781 15.95 13.5325 15.7876 13.8125 15.5292C14.3997 14.9885 14.3997 13.7493 14.3997 11.2717Z" fill="#0C0C0C"/>
</svg>
