<svg width="18" height="20" viewBox="0 0 18 20" fill="none" xmlns="http://www.w3.org/2000/svg">
<path d="M16.5 13.4084V9.24835C16.5 5.67335 16.5 3.88752 15.4017 2.77669C14.3033 1.66669 12.535 1.66669 9 1.66669C5.46417 1.66669 3.69667 1.66669 2.59833 2.77669C1.5 3.88752 1.5 5.67502 1.5 9.24835V13.4092C1.5 15.9892 1.5 17.28 2.11167 17.8434C2.40333 18.1125 2.77167 18.2817 3.16417 18.3267C3.98667 18.4209 4.9475 17.5709 6.86833 15.8717C7.71833 15.1209 8.1425 14.745 8.63333 14.6467C8.875 14.5967 9.125 14.5967 9.36667 14.6467C9.85833 14.745 10.2825 15.1209 11.1317 15.8717C13.0525 17.5709 14.0133 18.4209 14.8358 18.3259C15.2275 18.2817 15.5967 18.1125 15.8883 17.8434C16.5 17.28 16.5 15.9892 16.5 13.4084Z" stroke="#616161" stroke-width="1.5"/>
</svg>
