<svg xmlns="http://www.w3.org/2000/svg" width="20" height="20" fill="none" viewBox="0 0 20 20"><path fill="#000" d="M1.33333 11.0833H7.83333C8.42917 11.0833 8.91667 10.5958 8.91667 10V1.33333C8.91667 0.7375 8.42917 0.25 7.83333 0.25H1.33333C0.7375 0.25 0.25 0.7375 0.25 1.33333V10C0.25 10.5958 0.7375 11.0833 1.33333 11.0833ZM1.33333 19.75H7.83333C8.42917 19.75 8.91667 19.2625 8.91667 18.6667V14.3333C8.91667 13.7375 8.42917 13.25 7.83333 13.25H1.33333C0.7375 13.25 0.25 13.7375 0.25 14.3333V18.6667C0.25 19.2625 0.7375 19.75 1.33333 19.75ZM12.1667 19.75H18.6667C19.2625 19.75 19.75 19.2625 19.75 18.6667V10C19.75 9.40417 19.2625 8.91667 18.6667 8.91667H12.1667C11.5708 8.91667 11.0833 9.40417 11.0833 10V18.6667C11.0833 19.2625 11.5708 19.75 12.1667 19.75ZM11.0833 1.33333V5.66667C11.0833 6.2625 11.5708 6.75 12.1667 6.75H18.6667C19.2625 6.75 19.75 6.2625 19.75 5.66667V1.33333C19.75 0.7375 19.2625 0.25 18.6667 0.25H12.1667C11.5708 0.25 11.0833 0.7375 11.0833 1.33333Z"/></svg>