<svg xmlns="http://www.w3.org/2000/svg" width="24" height="22" fill="none" viewBox="0 0 24 22"><path fill="#0C0C0C" d="M20.8834 0.166687H9.3278V3.7778H12.2167V5.22224H2.8278C1.60002 5.22224 0.661133 6.16113 0.661133 7.38891V15.3334C0.661133 16.5611 1.60002 17.5 2.8278 17.5H3.55002V21.1834L8.10002 17.5H12.9389V12.4445H20.8834C22.1111 12.4445 23.05 11.5056 23.05 10.2778V2.33335C23.05 1.10558 22.1111 0.166687 20.8834 0.166687ZM8.46113 14.5389L8.10002 13.3834H5.86113L5.4278 14.5389H3.69447L6.0778 8.11113H7.81113L10.1945 14.5389H8.46113ZM19.4389 8.83335V10.2778C18.5 10.2778 17.4889 9.98891 16.6222 9.55558C15.7556 9.98891 14.7445 10.2056 13.7334 10.2778L13.6611 8.83335C14.1667 8.83335 14.6722 8.76113 15.1778 8.61669C14.5278 7.96669 14.0945 7.17224 13.8778 6.30558H15.3945C15.6111 6.95558 16.0445 7.46113 16.55 7.89446C17.3445 7.24447 17.85 6.30558 17.9222 5.22224H13.5889V3.7778H15.7556V2.33335H17.2V3.7778H19.5834L19.6556 4.50002C19.7278 6.01669 19.15 7.53335 18.0667 8.61669C18.5722 8.76113 19.0056 8.83335 19.4389 8.83335Z"/></svg>