<svg xmlns="http://www.w3.org/2000/svg" width="26" height="26" fill="none" viewBox="0 0 26 26"><g clip-path="url(#clip0_43_1590)"><path fill="#000" d="M16.6111 2.88889H5.05553C4.67244 2.88889 4.30504 3.04107 4.03415 3.31195C3.76327 3.58284 3.61108 3.95024 3.61108 4.33333V21.6667C3.61108 22.0498 3.76327 22.4172 4.03415 22.688C4.30504 22.9589 4.67244 23.1111 5.05553 23.1111H16.6111C16.9942 23.1111 17.3616 22.9589 17.6325 22.688C17.9033 22.4172 18.0555 22.0498 18.0555 21.6667V17.3333H11.2883C11.0968 17.3333 10.9131 17.2572 10.7776 17.1218C10.6422 16.9864 10.5661 16.8027 10.5661 16.6111C10.5661 16.4196 10.6422 16.2359 10.7776 16.1004C10.9131 15.965 11.0968 15.8889 11.2883 15.8889H18.0555V4.33333C18.0555 3.95024 17.9033 3.58284 17.6325 3.31195C17.3616 3.04107 16.9942 2.88889 16.6111 2.88889Z"/><path fill="#000" d="M20.3379 12.48C20.1997 12.3617 20.022 12.2999 19.8402 12.3069C19.6585 12.3139 19.486 12.3892 19.3574 12.5179C19.2288 12.6465 19.1534 12.8189 19.1464 13.0007C19.1394 13.1824 19.2012 13.3602 19.3196 13.4983L21.7607 15.8889H18.0557V17.3333H21.7607L19.3196 19.8322C19.2439 19.897 19.1825 19.9766 19.1392 20.0662C19.0958 20.1558 19.0715 20.2534 19.0676 20.3529C19.0638 20.4524 19.0806 20.5516 19.1169 20.6442C19.1532 20.7369 19.2083 20.8211 19.2786 20.8915C19.349 20.9619 19.4332 21.0169 19.5259 21.0532C19.6186 21.0895 19.7177 21.1063 19.8172 21.1025C19.9167 21.0986 20.0143 21.0743 20.1039 21.0309C20.1935 20.9876 20.2731 20.9262 20.3379 20.8506L24.5557 16.6617L20.3379 12.48Z"/></g><defs><clipPath id="clip0_43_1590"><rect width="26" height="26" fill="#fff"/></clipPath></defs></svg>