<svg xmlns="http://www.w3.org/2000/svg" width="22" height="16" fill="none" viewBox="0 0 22 16"><path fill="#0C0C0C" d="M0.166748 1.4946C0.166748 0.89877 0.649915 0.416687 1.24466 0.416687H9.92216C10.208 0.416687 10.4822 0.530253 10.6844 0.732401C10.8865 0.93455 11.0001 1.20872 11.0001 1.4946C11.0001 1.78048 10.8865 2.05466 10.6844 2.25681C10.4822 2.45895 10.208 2.57252 9.92216 2.57252H1.24466C0.958783 2.57252 0.684611 2.45895 0.482463 2.25681C0.280314 2.05466 0.166748 1.78048 0.166748 1.4946ZM0.166748 8.00002C0.166748 7.40419 0.649915 6.9221 1.24466 6.9221H20.7555C21.0414 6.9221 21.3156 7.03567 21.5177 7.23782C21.7198 7.43997 21.8334 7.71414 21.8334 8.00002C21.8334 8.2859 21.7198 8.56007 21.5177 8.76222C21.3156 8.96437 21.0414 9.07794 20.7555 9.07794H1.24466C0.958783 9.07794 0.684611 8.96437 0.482463 8.76222C0.280314 8.56007 0.166748 8.2859 0.166748 8.00002ZM1.24466 13.4275C0.958783 13.4275 0.684611 13.5411 0.482463 13.7432C0.280314 13.9454 0.166748 14.2196 0.166748 14.5054C0.166748 14.7913 0.280314 15.0655 0.482463 15.2676C0.684611 15.4698 0.958783 15.5834 1.24466 15.5834H14.2555C14.5414 15.5834 14.8156 15.4698 15.0177 15.2676C15.2198 15.0655 15.3334 14.7913 15.3334 14.5054C15.3334 14.2196 15.2198 13.9454 15.0177 13.7432C14.8156 13.5411 14.5414 13.4275 14.2555 13.4275H1.24466Z"/></svg>