<svg xmlns="http://www.w3.org/2000/svg" width="18" height="22" fill="none" viewBox="0 0 18 22"><path fill="#0C0C0C" d="M8.99999 21.8333C10.1917 21.8333 11.1667 20.8583 11.1667 19.6666H6.83333C6.83333 20.2413 7.0616 20.7924 7.46793 21.1987C7.87426 21.605 8.42536 21.8333 8.99999 21.8333ZM15.5 15.3333V9.91665C15.5 6.59081 13.7233 3.80665 10.625 3.06998V2.33331C10.625 1.43415 9.89916 0.708313 8.99999 0.708313C8.10083 0.708313 7.37499 1.43415 7.37499 2.33331V3.06998C4.26583 3.80665 2.49999 6.57998 2.49999 9.91665V15.3333L1.10249 16.7308C0.419995 17.4133 0.896661 18.5833 1.86083 18.5833H16.1283C17.0925 18.5833 17.58 17.4133 16.8975 16.7308L15.5 15.3333Z"/></svg>