<svg width="23" height="13" viewBox="0 0 23 13" fill="none" xmlns="http://www.w3.org/2000/svg">
<path d="M20.5901 5H12.6501C12.1665 3.63054 11.203 2.48277 9.93795 1.76935C8.67292 1.05593 7.19218 0.825235 5.77008 1.12C3.48008 1.58 1.62008 3.42 1.14008 5.7C0.945784 6.57717 0.950891 7.48678 1.15503 8.36172C1.35916 9.23666 1.75712 10.0546 2.31953 10.7552C2.88195 11.4559 3.59449 12.0213 4.40458 12.4098C5.21467 12.7983 6.10164 13 7.00008 13C8.24002 13 9.44943 12.6153 10.4614 11.8988C11.4734 11.1824 12.2381 10.1695 12.6501 9H13.0001L14.2901 10.29C14.6801 10.68 15.3101 10.68 15.7001 10.29L17.0001 9L18.2901 10.29C18.6801 10.68 19.3201 10.68 19.7101 10.29L22.3001 7.68C22.3933 7.58644 22.467 7.47534 22.517 7.35311C22.567 7.23089 22.5922 7.09996 22.5913 6.96791C22.5904 6.83586 22.5633 6.7053 22.5116 6.58379C22.4599 6.46228 22.3846 6.35223 22.2901 6.26L21.3001 5.29C21.1001 5.1 20.8501 5 20.5901 5ZM7.00008 10C5.35008 10 4.00008 8.65 4.00008 7C4.00008 5.35 5.35008 4 7.00008 4C8.65008 4 10.0001 5.35 10.0001 7C10.0001 8.65 8.65008 10 7.00008 10Z" fill="#616161"/>
</svg>
