<svg xmlns="http://www.w3.org/2000/svg" width="22" height="22" fill="none" viewBox="0 0 22 22"><path fill="#616161" d="M17.3279 21.5C16.4129 21.5 15.1276 21.1691 13.2029 20.0937C10.8624 18.7812 9.05213 17.5695 6.72432 15.2478C4.47995 13.0048 3.38776 11.5526 1.85917 8.77109C0.132291 5.63046 0.426666 3.98421 0.755729 3.28062C1.1476 2.43968 1.72604 1.93671 2.4737 1.43749C2.89836 1.15926 3.34776 0.920751 3.8162 0.724992C3.86307 0.704836 3.90667 0.685617 3.94557 0.668274C4.1776 0.563742 4.52917 0.405774 4.97448 0.574524C5.27167 0.686086 5.53698 0.914367 5.95229 1.32452C6.80401 2.16452 7.96792 4.0353 8.39729 4.95405C8.68557 5.57327 8.87635 5.98202 8.87682 6.44046C8.87682 6.97718 8.60682 7.39109 8.27917 7.8378C8.21776 7.92171 8.15682 8.00187 8.09776 8.07968C7.74104 8.54843 7.66276 8.6839 7.71432 8.92577C7.81885 9.41187 8.59838 10.8589 9.87948 12.1372C11.1606 13.4155 12.5659 14.1458 13.0539 14.2498C13.306 14.3037 13.4443 14.2222 13.9281 13.8528C13.9974 13.7998 14.0687 13.745 14.1432 13.6901C14.6429 13.3184 15.0376 13.0555 15.5617 13.0555H15.5645C16.0206 13.0555 16.411 13.2533 17.0579 13.5795C17.9017 14.0051 19.8287 15.1541 20.6739 16.0067C21.0849 16.4211 21.3142 16.6855 21.4262 16.9822C21.5949 17.4289 21.436 17.7791 21.3324 18.0134C21.3151 18.0523 21.2959 18.095 21.2757 18.1423C21.0784 18.6099 20.8385 19.0584 20.559 19.482C20.0607 20.2273 19.5559 20.8044 18.7131 21.1967C18.2803 21.4014 17.8066 21.5051 17.3279 21.5Z"/></svg>