<svg xmlns="http://www.w3.org/2000/svg" width="26" height="26.5" fill="none" viewBox="0 0 26 26.5"><path fill="#0C0C0C" d="M17.4611 12C17.4614 12.1306 17.428 12.259 17.3639 12.3728C17.2999 12.4867 17.2075 12.582 17.0958 12.6495L10.1692 16.8868C10.0524 16.9583 9.91864 16.9973 9.78173 16.9999C9.64482 17.0024 9.50971 16.9683 9.39037 16.9012C9.27216 16.8351 9.17368 16.7387 9.10507 16.622C9.03647 16.5052 9.0002 16.3722 9 16.2368V7.76318C9.0002 7.62775 9.03647 7.49481 9.10507 7.37804C9.17368 7.26127 9.27216 7.16489 9.39037 7.09879C9.50971 7.03166 9.64482 6.9976 9.78173 7.00013C9.91864 7.00267 10.0524 7.04171 10.1692 7.11322L17.0958 11.3505C17.2075 11.418 17.2999 11.5134 17.3639 11.6272C17.428 11.741 17.4614 11.8694 17.4611 12Z"/><rect width="23" height="23" x="1" y=".5" stroke="#0C0C0C" stroke-width="1.5" rx="11.5"/></svg>