<svg width="18" height="18" viewBox="0 0 18 18" fill="none" xmlns="http://www.w3.org/2000/svg">
<path d="M8.99992 0.333344C10.1492 0.333344 11.2514 0.78989 12.064 1.60255C12.8767 2.41521 13.3333 3.51741 13.3333 4.66668C13.3333 5.81595 12.8767 6.91815 12.064 7.73081C11.2514 8.54346 10.1492 9.00001 8.99992 9.00001C7.85065 9.00001 6.74845 8.54346 5.93579 7.73081C5.12313 6.91815 4.66659 5.81595 4.66659 4.66668C4.66659 3.51741 5.12313 2.41521 5.93579 1.60255C6.74845 0.78989 7.85065 0.333344 8.99992 0.333344ZM8.99992 11.1667C13.7883 11.1667 17.6666 13.1058 17.6666 15.5V17.6667H0.333252V15.5C0.333252 13.1058 4.21159 11.1667 8.99992 11.1667Z" fill="black"/>
</svg>
