<svg xmlns="http://www.w3.org/2000/svg" width="22" height="24" fill="none" viewBox="0 0 22 24"><path fill="#000" d="M11.0126 8.91759C10.2534 8.91759 9.5425 9.21212 9.00422 9.7504C8.46848 10.2887 8.17141 10.9996 8.17141 11.7588C8.17141 12.518 8.46848 13.2289 9.00422 13.7672C9.5425 14.3029 10.2534 14.6 11.0126 14.6C11.7718 14.6 12.4827 14.3029 13.021 13.7672C13.5568 13.2289 13.8538 12.518 13.8538 11.7588C13.8538 10.9996 13.5568 10.2887 13.021 9.7504C12.7581 9.48547 12.4452 9.27542 12.1004 9.13245C11.7556 8.98948 11.3859 8.91645 11.0126 8.91759ZM21.4812 14.8971L19.8206 13.4777C19.8993 12.9953 19.94 12.5027 19.94 12.0127C19.94 11.5227 19.8993 11.0276 19.8206 10.5477L21.4812 9.12833C21.6066 9.02095 21.6964 8.87792 21.7386 8.71827C21.7808 8.55862 21.7733 8.38991 21.7173 8.23458L21.6945 8.16857C21.2375 6.89063 20.5527 5.70607 19.6734 4.67228L19.6277 4.61896C19.5209 4.49341 19.3786 4.40315 19.2195 4.36009C19.0604 4.31703 18.892 4.32319 18.7364 4.37775L16.6747 5.11154C15.913 4.48693 15.065 3.99435 14.1458 3.65157L13.7472 1.49591C13.7171 1.33352 13.6383 1.18412 13.5213 1.06757C13.4043 0.95101 13.2546 0.872816 13.0921 0.843372L13.0236 0.830676C11.7032 0.592004 10.3118 0.592004 8.99152 0.830676L8.92297 0.843372C8.76046 0.872816 8.61076 0.95101 8.49375 1.06757C8.37674 1.18412 8.29797 1.33352 8.26789 1.49591L7.86672 3.66173C6.95628 4.00724 6.10815 4.49862 5.35559 5.11661L3.27863 4.37775C3.12315 4.32276 2.95462 4.31638 2.79544 4.35946C2.63625 4.40255 2.49394 4.49306 2.38742 4.61896L2.34172 4.67228C1.46394 5.70717 0.77936 6.89144 0.320624 8.16857L0.297772 8.23458C0.183514 8.55197 0.27746 8.90743 0.533905 9.12833L2.21476 10.5629C2.13605 11.0402 2.09797 11.5277 2.09797 12.0102C2.09797 12.4977 2.13605 12.9852 2.21476 13.4574L0.538983 14.892C0.413543 14.9994 0.323763 15.1424 0.281583 15.3021C0.239403 15.4617 0.246821 15.6304 0.30285 15.7858L0.325702 15.8518C0.785272 17.1289 1.4632 18.3096 2.3468 19.3481L2.3925 19.4014C2.49928 19.5269 2.64159 19.6172 2.80068 19.6602C2.95978 19.7033 3.12818 19.6971 3.28371 19.6426L5.36066 18.9037C6.1173 19.5258 6.96027 20.0184 7.8718 20.3586L8.27297 22.5244C8.30304 22.6868 8.38182 22.8362 8.49883 22.9528C8.61584 23.0693 8.76554 23.1475 8.92805 23.177L8.9966 23.1897C10.3299 23.4296 11.6953 23.4296 13.0286 23.1897L13.0972 23.177C13.2597 23.1475 13.4094 23.0693 13.5264 22.9528C13.6434 22.8362 13.7222 22.6868 13.7523 22.5244L14.1509 20.3688C15.07 20.0234 15.9181 19.5334 16.6798 18.9088L18.7415 19.6426C18.897 19.6976 19.0655 19.704 19.2247 19.6609C19.3839 19.6178 19.5262 19.5273 19.6327 19.4014L19.6784 19.3481C20.562 18.3045 21.24 17.1289 21.6995 15.8518L21.7224 15.7858C21.8316 15.4709 21.7376 15.118 21.4812 14.8971ZM11.0126 16.2225C8.54719 16.2225 6.54894 14.2242 6.54894 11.7588C6.54894 9.29337 8.54719 7.29513 11.0126 7.29513C13.478 7.29513 15.4763 9.29337 15.4763 11.7588C15.4763 14.2242 13.478 16.2225 11.0126 16.2225Z"/></svg>