<svg width="24" height="23" viewBox="0 0 24 23" fill="none" xmlns="http://www.w3.org/2000/svg">
<path d="M22.8164 10.6167L18.2359 14.6142L19.608 20.5658C19.6806 20.8769 19.6599 21.2026 19.5485 21.502C19.437 21.8014 19.2398 22.0613 18.9814 22.2492C18.723 22.4372 18.415 22.5448 18.0958 22.5586C17.7766 22.5724 17.4604 22.4918 17.1868 22.3269L11.9959 19.1784L6.81622 22.3269C6.54258 22.4918 6.2264 22.5724 5.90721 22.5586C5.58802 22.5448 5.27998 22.4372 5.02161 22.2492C4.76324 22.0613 4.56599 21.8014 4.45454 21.502C4.34308 21.2026 4.32237 20.8769 4.39497 20.5658L5.76505 14.6203L1.18357 10.6167C0.941248 10.4077 0.766026 10.1319 0.679874 9.82368C0.593723 9.5155 0.600477 9.18874 0.699289 8.88439C0.798101 8.58003 0.984574 8.31162 1.23532 8.11282C1.48607 7.91402 1.78993 7.79368 2.1088 7.76689L8.14771 7.24384L10.505 1.62134C10.6281 1.32632 10.8357 1.07431 11.1017 0.897054C11.3678 0.719797 11.6803 0.625214 12 0.625214C12.3196 0.625214 12.6322 0.719797 12.8982 0.897054C13.1642 1.07431 13.3719 1.32632 13.495 1.62134L15.8593 7.24384L21.8962 7.76689C22.2151 7.79368 22.519 7.91402 22.7697 8.11282C23.0205 8.31162 23.2069 8.58003 23.3057 8.88439C23.4045 9.18874 23.4113 9.5155 23.3252 9.82368C23.239 10.1319 23.0638 10.4077 22.8215 10.6167H22.8164Z" fill="black"/>
</svg>
